<?xml version="1.0" encoding="utf-8"?>
<!-- Generator: Adobe Illustrator 21.0.0, SVG Export Plug-In . SVG Version: 6.00 Build 0)  -->
<svg version="1.1" id="Layer_1" xmlns="http://www.w3.org/2000/svg" xmlns:xlink="http://www.w3.org/1999/xlink" x="0px" y="0px"
	 viewBox="0 0 3000 1296" enable-background="new 0 0 3000 1296" xml:space="preserve">
<path fill-rule="evenodd" clip-rule="evenodd" fill="#FFFFFF" d="M2895.1,1296H104.9C47,1296,0,1249,0,1191.1V104.9
	C0,47,47,0,104.9,0h2790.2C2953,0,3000,47,3000,104.9v1086.2C3000,1249,2953,1296,2895.1,1296z"/>
<g>
	<g>
		<path fill="#5ABA00" d="M219.4,498.2c1.8-42,10.7-82.4,26.8-121.1c21.5-51.6,53.5-95.9,96-132.1c53.4-45.5,114.9-73.2,184.7-81.7
			c14.6-1.8,29.5-2.2,44.2-2.8c9.5-0.4,16.5,4.5,20.8,13c4.3,8.6,3.2,16.9-2.6,24.4c-4.8,6.2-11.4,8.9-19.2,8.9
			c-24.5,0.1-48.7,3-72.6,9c-42.7,10.7-81.4,29.7-115.8,57.2c-47.8,38.3-81.4,86.5-100.6,144.6c-7.3,22.3-12.2,45.2-13.6,68.7
			c-0.5,9-0.7,18-1.6,26.9c-1.2,13.2-11.3,22.1-24.1,21.5c-12.6-0.6-22.1-10.5-22.5-23.5C219.4,506.8,219.4,502.5,219.4,498.2z"/>
		<path fill="#5ABA00" d="M316.1,500.4c2.8-59.4,23.4-111.9,62.7-156.6c42-47.8,94.8-76,157.6-85.1c11.1-1.6,22.5-2,33.8-2.3
			c13.8-0.3,24.4,10.2,24.3,23.1c-0.1,12.8-10.4,22.9-23.9,23.1c-42.4,0.5-81.4,12-116.4,36.1c-49.3,34-79,80.9-89.2,139.9
			c-1.8,10.4-2,21.2-2.4,31.8c-0.7,16.9-14,27.2-30.3,23.2c-10.2-2.5-17.3-12.7-16.8-24.3C315.6,506.4,315.9,503.4,316.1,500.4z"/>
		<path fill="#5ABA00" d="M411.4,508.9c1.4-45,18.1-83.4,51-114c30-27.9,66.1-42.2,107.3-42.6c11.9-0.1,21.1,6.7,23.9,17.3
			c3.9,14.6-6.9,28.7-22.5,29c-21.3,0.3-41.3,5.3-59.2,16.9c-33.9,22-52.2,53.2-53.3,93.9c-0.3,11.5-5.8,20.2-15.6,23.9
			c-8.8,3.3-19.3,0.5-25.8-6.9C412.8,521.4,411.5,515.3,411.4,508.9z"/>
	</g>
</g>
<g>
	<path fill="#DE0703" d="M963,915.5l0.1-10c-24.9,19.9-51.9,35.2-81.1,45.8c-29.2,10.6-60.3,15.9-93.5,15.9
		c-76.9,0-142.6-27.2-196.9-81.6S510,765.7,510,688.7c0-76.9,27.2-142.6,81.6-196.9s120-81.6,196.9-81.6
		c76.2,0,141.9,27.2,196.9,81.6c54.4,54.4,81.6,120,81.6,196.9v226.8c0,14.2-5.1,26.4-15.2,36.5c-10.1,10.1-22.3,15.2-36.6,15.2
		c-14.6,0-27-5-37.1-15.2S963,929.7,963,915.5z M788.5,514.2c-24.5,0-47.4,4.6-68.6,13.9c-21.2,9.3-39.6,21.8-55.2,37.5
		c-15.6,15.8-27.9,34.2-37,55.4c-9.1,21.2-13.7,43.8-13.7,67.6c0,23.9,4.5,46.4,13.7,67.6c9.1,21.2,21.5,39.7,37,55.4
		c15.6,15.8,34,28.2,55.2,37.5c21.2,9.3,44.1,13.9,68.6,13.9c24.2,0,46.9-4.6,68.1-13.9c21.2-9.3,39.7-21.9,55.4-37.8
		s28.2-34.4,37.3-55.4c9.1-21,13.7-43.5,13.7-67.4c0-23.9-4.6-46.3-13.7-67.4c-9.1-21-21.5-39.5-37.3-55.4s-34.2-28.5-55.4-37.8
		C835.4,518.9,812.7,514.2,788.5,514.2z"/>
</g>
<g>
	<path fill="#090242" d="M1217.6,915c0,14.6-5.1,27-15.2,37.1s-22.5,15.2-37.1,15.2c-14.3,0-26.5-5-36.6-15.2
		c-10.1-10.1-15.2-22.4-15.2-37V224.4c0-14.6,5-26.9,15.2-37c10.1-10.1,22.3-15.2,36.6-15.2c14.2,0,26.4,5,36.6,15.1
		s15.3,22.4,15.7,37l-0.1,238.2c44.1-34.2,95.9-51.2,155.6-51.2c34.8,0,67.9,6.8,99.2,20.4s58.9,32.1,82.8,55.5s42.8,50.9,56.7,82.6
		s20.9,65.4,20.9,101.2V915c-0.3,14.6-5.6,26.9-15.7,37c-10.1,10.1-22.3,15.2-36.6,15.2c-14.3,0-26.5-5-36.6-15.2
		s-15.2-22.5-15.2-37.1V670.9c0-21.2-4.1-41.3-12.4-60.2c-8.3-18.9-19.5-35.4-33.5-49.5c-14.1-14.1-30.6-25.3-49.4-33.6
		s-38.9-12.4-60.1-12.4c-21.5,0-41.7,4.1-60.4,12.2s-35.2,19.3-49.4,33.6c-14.2,14.2-25.4,30.8-33.5,49.7
		c-8.1,18.9-12.2,39-12.2,60.2V915z"/>
</g>
<g>
	<path fill="#FEBC00" d="M2224.1,688.7c0,77.6-27.2,143.2-81.6,196.9c-55,54.4-120.7,81.6-196.9,81.6c-76.9,0-142.6-27.2-196.9-81.6
		s-81.6-120-81.6-196.9c0-76.9,27.2-142.6,81.6-196.9s120-81.6,196.9-81.6c76.2,0,141.9,27.2,196.9,81.6
		c27.2,27.2,47.5,57.2,60.9,90C2216.8,614.6,2223.7,650.3,2224.1,688.7z M1945.6,514.2c-24.5,0-47.4,4.6-68.6,13.9
		c-21.2,9.3-39.6,21.8-55.2,37.5c-15.6,15.8-27.9,34.2-37,55.4c-9.1,21.2-13.7,43.8-13.7,67.6c0,23.9,4.5,46.4,13.7,67.6
		c9.1,21.2,21.5,39.7,37,55.4c15.6,15.8,34,28.2,55.2,37.5c21.2,9.3,44.1,13.9,68.6,13.9c24.2,0,46.9-4.6,68.1-13.9
		c21.2-9.3,39.7-21.9,55.4-37.8s28.2-34.4,37.3-55.4c9.1-21,13.7-43.5,13.7-67.4c0-23.9-4.6-46.3-13.7-67.4
		c-9.1-21-21.5-39.5-37.3-55.4s-34.2-28.5-55.4-37.8C1992.5,518.9,1969.8,514.2,1945.6,514.2z"/>
</g>
<g>
	<path fill="#5ABA00" d="M2404.4,915.7l-178.9-430.3c-3.3-7.6-5-15.4-5-23.4c0-7,1.3-13.6,4-19.9c2.7-6.3,6.3-11.9,10.9-16.7
		s10.1-8.5,16.4-11.2s13.1-4,20.4-4c10.3,0,19.9,2.9,28.8,8.7c8.9,5.8,15.7,14.3,20.4,25.6l139.7,333.8l139.7-334.8
		c4-9.9,9.7-18,17.1-24.1c7.5-6.1,18-9.2,31.6-9.2c7.3,0,14.1,1.3,20.4,4s11.8,6.4,16.4,11.2s8.4,10.4,11.2,16.7
		c2.8,6.3,4.2,12.9,4.2,19.9c0,7.3-1.8,15.1-5.5,23.4l-285.8,686c-4.3,10.3-11,18.7-19.9,25.1c-9,6.5-18.7,9.7-29.3,9.7
		c-14.9,0-27.2-5-37-14.9c-9.8-10-14.7-22.4-14.7-37.3c0-8,1.7-15.6,5-22.9L2404.4,915.7z"/>
</g>
</svg>
