<?xml version="1.0" encoding="utf-8"?>
<!-- Generator: Adobe Illustrator 21.0.0, SVG Export Plug-In . SVG Version: 6.00 Build 0)  -->
<svg version="1.1" id="Layer_1" xmlns="http://www.w3.org/2000/svg" xmlns:xlink="http://www.w3.org/1999/xlink" x="0px" y="0px"
	 viewBox="0 0 110 110" enable-background="new 0 0 110 110" xml:space="preserve">
<g>
	<path fill="#616368" d="M30.2,5c0.7,0.3,1.4,0.5,2,0.9c1.6,1,2.2,2.5,2.3,4.3c0.2,3.1,0.2,6.2,0.7,9.2c0.6,3.5,1.5,7,2.4,10.5
		c0.7,2.8,0.3,5.1-1.8,7c-3.7,3.6-7.5,7.2-11.2,10.7c-0.6,0.5-0.6,0.9-0.2,1.6c6.4,12.2,15.5,22.1,26.8,30c2.8,1.9,5.7,3.6,8.6,5.4
		c0.6,0.4,1,0.3,1.5-0.2c3.8-3.8,7.6-7.6,11.4-11.4c0.9-0.9,1.9-1.7,3.3-1.8c0.6-0.1,1.2-0.1,1.7,0.2c6.5,2.6,13.2,3.6,20.1,3.7
		c0.5,0,1,0,1.6,0.1c2.3,0.3,3.8,1.6,4.5,3.9c0,0.2,0.1,0.3,0.2,0.4c0,7.1,0,14.2,0,21.3c-0.2,0.5-0.4,1.1-0.7,1.6
		c-0.7,1.5-2.2,2.2-3.6,2.7c-1.8,0-3.6,0-5.5,0c-0.4-0.1-0.8-0.1-1.2-0.2c-5.4-0.3-10.7-1-15.9-2.3c-24.7-6-44.1-19.6-58-40.8
		c-8.2-12.4-12.9-26.2-14.5-41c-0.2-2-0.4-4-0.6-6c0-1.8,0-3.6,0-5.5C4.3,8.7,4.5,8,4.9,7.4C5.6,6,7,5.5,8.3,5C15.6,5,22.9,5,30.2,5
		z"/>
</g>
</svg>
